<svg viewBox="0 0 122 39" xmlns="http://www.w3.org/2000/svg" width="111"><path d="M112.251 33.435c0 .422.228.65.65.65h2.274c.422 0 .65-.228.65-.65V22.296c0-.909.584-1.526 1.493-1.526h3.637c.422 0 .65-.228.65-.65v-2.274c0-.422-.228-.65-.65-.65h-4.546c-.357 0-.585.228-.585.65v1.104c0 .941-.552 1.494-1.493 1.494h-.293c-1.072 0-1.787.714-1.787 1.883v11.108zm-9.936-13.444c2.274 0 4.092 1.428 4.677 3.799H97.64c.55-2.273 2.272-3.8 4.675-3.8zm0-3.15c-4.968 0-8.346 3.54-8.346 8.767 0 5.131 3.28 8.833 8.67 8.833 3.54 0 6.3-1.624 7.534-4.546.195-.422-.032-.682-.455-.682h-2.468c-.293 0-.52.13-.715.39-.779 1.104-2.143 1.722-3.8 1.722-2.792 0-4.838-1.787-5.26-4.677h12.535c.357 0 .584-.228.584-.584v-.357c.001-5.132-3.214-8.866-8.279-8.866zm-16.529-.033c-2.565 0-4.676 1.103-5.618 3.052-.877-1.883-2.662-3.052-5-3.052-2.079 0-3.703.877-4.612 2.337l-.422-1.396c-.13-.422-.39-.552-.78-.552h-1.623c-.422 0-.65.227-.65.65v15.587c0 .422.228.65.65.65h2.273c.422 0 .65-.228.65-.65v-9.45c0-2.372 1.494-3.962 3.702-3.962 2.078 0 3.475 1.558 3.475 3.896v9.514c0 .423.227.65.65.65h2.273c.422 0 .65-.227.65-.65v-9.45c0-2.37 1.493-3.962 3.702-3.962 2.078 0 3.474 1.56 3.474 3.897v9.514c0 .422.228.65.65.65h2.274c.422 0 .65-.228.65-.65V23.234c-.003-3.697-2.374-6.426-6.368-6.426zm-22.439.39c.422 0 .65.227.65.65v15.587c0 .422-.228.65-.65.65h-2.274c-.422 0-.65-.228-.65-.65V17.847c0-.422.228-.65.65-.65h2.274zm-1.137-1.85c1.234 0 2.175-.942 2.175-2.176 0-1.234-.94-2.175-2.175-2.175-1.234 0-2.175.94-2.175 2.175 0 1.233.941 2.175 2.175 2.175zM49.221 33.434c0 .422.228.65.65.65h2.273c.423 0 .65-.228.65-.65V22.296c0-.909.585-1.526 1.494-1.526h3.637c.422 0 .65-.228.65-.65v-2.274c0-.422-.228-.65-.65-.65h-4.546c-.357 0-.585.228-.585.65v1.104c0 .941-.552 1.494-1.494 1.494h-.292c-1.072 0-1.787.714-1.787 1.883v11.108zm-14.19-18.803h4.286c3.02 0 4.87 1.722 4.87 4.481 0 2.76-1.85 4.481-4.87 4.481H35.03v-8.962zm-.65 19.452c.422 0 .65-.227.65-.65v-6.591h4.513c5.131 0 8.346-2.988 8.346-7.73 0-4.773-3.215-7.76-8.346-7.76H31.88c-.422 0-.65.227-.65.649v21.433c0 .422.228.65.65.65h2.5zm-22.959-1.136c0 3.474-2.37 5.974-5.65 5.974-3.281 0-5.684-2.5-5.684-5.974v-3.475c0-3.475 2.5-5.975 5.683-5.975h2.111c2.24 0 3.54-1.299 3.54-3.54V14.86c0-2.24-1.3-3.508-3.54-3.508H6.421c-3.832 0-6.333-2.5-6.333-5.683 0-3.15 2.5-5.65 5.683-5.65 3.15 0 5.651 2.5 5.651 5.974v1.818c0 2.24 1.3 3.54 3.54 3.54h5.748c1.266 0 2.013.747 2.013 2.013v8.118c0 1.266-.747 2.013-2.013 2.013h-5.748c-2.24 0-3.54 1.266-3.54 3.508v5.945z" fill="black" fill-rule="nonzero"></path></svg>